<svg xmlns="http://www.w3.org/2000/svg" viewBox="0 0 23.22 23.22"><defs><style>.cls-1{fill:#3f4551;}</style></defs><title>vk</title><g id="Слой_2" data-name="Слой 2"><g id="Слой_1-2" data-name="Слой 1"><path class="cls-1" d="M11.61,0A11.61,11.61,0,1,0,23.22,11.61,11.61,11.61,0,0,0,11.61,0Zm6.65,16.71-2,0a1.39,1.39,0,0,1-1-.3c-.76-.52-1.48-1.86-2-1.69s-.55,1.35-.55,1.44a.85.85,0,0,1-.12.48,2.79,2.79,0,0,1-.42.33h-.91a5.84,5.84,0,0,1-3.78-1.87A24.7,24.7,0,0,1,3.75,9s-.09-.26,0-.39.45-.15.45-.15H6.39a.9.9,0,0,1,.35.14.71.71,0,0,1,.19.25,14.36,14.36,0,0,0,.82,1.7c.91,1.57,1.33,1.92,1.64,1.75S9.71,10,9.71,10a2.27,2.27,0,0,0-.23-1,1,1,0,0,0-.68-.34c-.12,0,.08-.3.34-.43A4.94,4.94,0,0,1,11,8a4,4,0,0,1,1.07.11c.75.18.5.88.5,2.56,0,.54-.1,1.3.29,1.55.17.1.58,0,1.6-1.72a13.2,13.2,0,0,0,.84-1.79.6.6,0,0,1,.21-.24.49.49,0,0,1,.29-.06h2.29s.69-.08.8.23S18.68,9.76,17.74,11c-1.54,2-1.71,1.85-.43,3a6.62,6.62,0,0,1,1.51,1.75C19.33,16.64,18.26,16.71,18.26,16.71Z"/></g></g></svg>