<svg xmlns="http://www.w3.org/2000/svg" viewBox="0 0 23.33 23.1"><defs><style>.cls-1{fill:#3f4551;}</style></defs><title>Ресурс 1</title><g id="Слой_2" data-name="Слой 2"><g id="Слой_1-2" data-name="Слой 1"><path class="cls-1" d="M11.76,0A11.74,11.74,0,0,0,0,11.61,11.87,11.87,0,0,0,9.35,23V16.3h-2V13.2l2-.17V11.36A8.85,8.85,0,0,1,9.79,9a5.06,5.06,0,0,1,1-1.85A4.68,4.68,0,0,1,12.52,6,6.47,6.47,0,0,1,15,5.57a7.87,7.87,0,0,1,1.64.16,7.16,7.16,0,0,1,1.34.4L17.25,9a4.62,4.62,0,0,0-1.82-.39c-1.36,0-2.08.91-2.08,2.73v2h3v3h-3v6.8a11.33,11.33,0,0,0,10-11.49A11.58,11.58,0,0,0,11.76,0Z"/></g></g></svg>