<?xml version="1.0" encoding="utf-8"?>
<!-- Generator: Adobe Illustrator 22.1.0, SVG Export Plug-In . SVG Version: 6.00 Build 0)  -->
<svg version="1.1" id="Слой_1" xmlns="http://www.w3.org/2000/svg" xmlns:xlink="http://www.w3.org/1999/xlink" x="0px" y="0px"
	 viewBox="0 0 23.2 23.2" style="enable-background:new 0 0 23.2 23.2;" xml:space="preserve">
<style type="text/css">
	.st0{fill:#3F4551;}
	.st1{fill:#FFFFFF;}
</style>
<title>instagram</title>
<g id="Слой_2_1_">
	<g id="Слой_1-2">
		<g>
			<path class="st0" d="M11.6,0C5.2,0,0,5.2,0,11.6s5.2,11.6,11.6,11.6S23.2,18,23.2,11.6l0,0C23.2,5.2,18,0,11.6,0z M18,16.1
				c0,1-0.8,1.9-1.9,1.9c0,0,0,0,0,0H6.9c-1,0-1.9-0.8-1.9-1.9l0,0V6.9C5,5.8,5.8,5,6.9,5l0,0h9.3c1,0,1.9,0.8,1.9,1.9c0,0,0,0,0,0
				V16.1z"/>
		</g>
		<g>
			<circle class="st0" cx="11.5" cy="11.5" r="2.5"/>
		</g>
		<g>
			<rect x="15" y="7" class="st0" width="1" height="1"/>
			<rect x="14.5" y="6.5" class="st1" width="2" height="2"/>
		</g>
		<g>
			<circle class="st0" cx="15.5" cy="7.5" r="1.5"/>
		</g>
	</g>
</g>
</svg>
