<svg xmlns="http://www.w3.org/2000/svg" viewBox="0 0 23.22 23.22"><defs><style>.cls-1{fill:#3f4551;}.cls-2{fill:#fff;}</style></defs><title>vk</title><g id="Слой_2" data-name="Слой 2"><g id="Слой_1-2" data-name="Слой 1"><circle id="_Контур_" data-name="&lt;Контур&gt;" class="cls-1" cx="11.61" cy="11.61" r="11.61"/><path class="cls-2" d="M11.17,17h.91a2.79,2.79,0,0,0,.42-.33.85.85,0,0,0,.12-.48s0-1.26.55-1.44,1.28,1.17,2,1.69a1.39,1.39,0,0,0,1,.3l2,0s1.07-.07.56-.91a6.62,6.62,0,0,0-1.51-1.75c-1.28-1.19-1.11-1,.43-3,.94-1.25,1.31-2,1.19-2.34s-.8-.23-.8-.23H15.84a.49.49,0,0,0-.29.06.6.6,0,0,0-.21.24,13.2,13.2,0,0,1-.84,1.79c-1,1.73-1.43,1.82-1.6,1.72-.39-.25-.29-1-.29-1.55,0-1.68.25-2.38-.5-2.56A4,4,0,0,0,11,8a4.94,4.94,0,0,0-1.9.2c-.26.13-.46.41-.34.43A1,1,0,0,1,9.48,9a2.27,2.27,0,0,1,.23,1s.13,2-.32,2.23-.73-.18-1.64-1.75a14.36,14.36,0,0,1-.82-1.7.71.71,0,0,0-.19-.25.9.9,0,0,0-.35-.14H4.21s-.33,0-.45.15,0,.39,0,.39a24.7,24.7,0,0,0,3.64,6.15A5.84,5.84,0,0,0,11.17,17Z"/></g></g></svg>